<?xml version="1.0" encoding="UTF-8" standalone="no"?>
<svg
   viewBox="0 0 6.6859998 6.6859997"
   version="1.1"
   x="0px"
   y="0px"
   id="svg5"
   sodipodi:docname="noun-serial-port-5265736.svg"
   width="6.6859999"
   height="6.6859999"
   inkscape:version="1.3.2 (091e20e, 2023-11-25, custom)"
   xmlns:inkscape="http://www.inkscape.org/namespaces/inkscape"
   xmlns:sodipodi="http://sodipodi.sourceforge.net/DTD/sodipodi-0.dtd"
   xmlns="http://www.w3.org/2000/svg"
   xmlns:svg="http://www.w3.org/2000/svg">
  <defs
     id="defs5" />
  <sodipodi:namedview
     id="namedview5"
     pagecolor="#ffffff"
     bordercolor="#000000"
     borderopacity="0.25"
     inkscape:showpageshadow="2"
     inkscape:pageopacity="0.0"
     inkscape:pagecheckerboard="0"
     inkscape:deskcolor="#d1d1d1"
     inkscape:zoom="77.573582"
     inkscape:cx="2.6748797"
     inkscape:cy="4.0155423"
     inkscape:window-width="1920"
     inkscape:window-height="1017"
     inkscape:window-x="-8"
     inkscape:window-y="-8"
     inkscape:window-maximized="1"
     inkscape:current-layer="svg5" />
  <g
     transform="translate(-40.70358,-137.60622)"
     id="g4"
     style="fill:#3c805f;fill-opacity:1">
    <path
       style="font-variation-settings:'wght' 700;fill:#3c805f;fill-opacity:1"
       d="m 41.402009,140.94916 a 0.26556483,0.26556483 0 0 1 -0.265565,0.26556 0.26556483,0.26556483 0 0 1 -0.265565,-0.26556 0.26556483,0.26556483 0 0 1 0.265565,-0.26557 0.26556483,0.26556483 0 0 1 0.265565,0.26557 z"
       stroke-width="0.529165"
       stroke-linecap="round"
       stroke-linejoin="round"
       id="path1" />
    <path
       style="font-variation-settings:'wght' 700;fill:#3c805f;fill-opacity:1"
       d="m 42.43035,139.76117 a 0.496664,0.496664 0 0 0 -0.49041,0.57464 l 0.1943,1.2268 a 0.68116464,0.68116464 0 0 0 0.67283,0.57412 h 2.47892 a 0.68116181,0.68116181 0 0 0 0.67283,-0.57412 l 0.1943,-1.2268 a 0.49666606,0.49666606 0 0 0 -0.49041,-0.57464 z m 0.31316,0.60823 a 0.2381513,0.23709419 0 0 1 0.23823,0.23719 0.2381513,0.23709419 0 0 1 -0.23823,0.2372 0.2381513,0.23709419 0 0 1 -0.23771,-0.2372 0.2381513,0.23709419 0 0 1 0.23771,-0.23719 z m 0.65164,0 a 0.2381513,0.23709419 0 0 1 0.23823,0.23719 0.2381513,0.23709419 0 0 1 -0.23823,0.2372 0.2381513,0.23709419 0 0 1 -0.23823,-0.2372 0.2381513,0.23709419 0 0 1 0.23823,-0.23719 z m 0.65164,0 a 0.2381513,0.23709419 0 0 1 0.23771,0.23719 0.2381513,0.23709419 0 0 1 -0.23771,0.2372 0.2381513,0.23709419 0 0 1 -0.23823,-0.2372 0.2381513,0.23709419 0 0 1 0.23823,-0.23719 z m 0.65112,0 a 0.2381513,0.23709419 0 0 1 0.23823,0.23719 0.2381513,0.23709419 0 0 1 -0.23823,0.2372 0.2381513,0.23709419 0 0 1 -0.23823,-0.2372 0.2381513,0.23709419 0 0 1 0.23823,-0.23719 z m 0.65164,0 a 0.2381513,0.23709419 0 0 1 0.23823,0.23719 0.2381513,0.23709419 0 0 1 -0.23823,0.2372 0.2381513,0.23709419 0 0 1 -0.23823,-0.2372 0.2381513,0.23709419 0 0 1 0.23823,-0.23719 z m -2.26136,0.68523 a 0.2381513,0.23709419 0 0 1 0.23771,0.23719 0.2381513,0.23709419 0 0 1 -0.23771,0.2372 0.2381513,0.23709419 0 0 1 -0.23823,-0.2372 0.2381513,0.23709419 0 0 1 0.23823,-0.23719 z m 0.66094,0 a 0.2381513,0.23709419 0 0 1 0.23823,0.23719 0.2381513,0.23709419 0 0 1 -0.23823,0.2372 0.2381513,0.23709419 0 0 1 -0.23823,-0.2372 0.2381513,0.23709419 0 0 1 0.23823,-0.23719 z m 0.66146,0 a 0.2381513,0.23709419 0 0 1 0.23771,0.23719 0.2381513,0.23709419 0 0 1 -0.23771,0.2372 0.2381513,0.23709419 0 0 1 -0.23823,-0.2372 0.2381513,0.23709419 0 0 1 0.23823,-0.23719 z m 0.66094,0 a 0.2381513,0.23709419 0 0 1 0.23823,0.23719 0.2381513,0.23709419 0 0 1 -0.23823,0.2372 0.2381513,0.23709419 0 0 1 -0.23823,-0.2372 0.2381513,0.23709419 0 0 1 0.23823,-0.23719 z"
       fill="#000000"
       stroke="none"
       id="path2" />
    <path
       style="color:#000000;fill:#3c805f;fill-opacity:1"
       d="m 42.429687,139.49609 c -0.462984,0 -0.824477,0.42359 -0.751953,0.88086 l 0.195313,1.22657 c 0.07257,0.45754 0.470331,0.79882 0.933594,0.79882 h 2.478515 c 0.463263,0 0.862981,-0.34128 0.935547,-0.79882 l 0.193359,-1.22657 c 0.07252,-0.45727 -0.288968,-0.88086 -0.751953,-0.88086 z m 0,0.5293 h 3.232422 c 0.147675,0 0.253601,0.12368 0.230469,0.26953 l -0.195312,1.22656 c -0.03238,0.2042 -0.205364,0.35157 -0.41211,0.35157 h -2.478515 c -0.206747,0 -0.377771,-0.14737 -0.410157,-0.35157 l -0.195312,-1.22656 c -0.02313,-0.14585 0.08084,-0.26953 0.228515,-0.26953 z"
       fill="#000000"
       stroke-linecap="round"
       stroke-linejoin="round"
       id="path3" />
    <path
       style="font-variation-settings:'wght' 700;fill:#3c805f;fill-opacity:1"
       d="m 47.222281,140.94916 a 0.26360181,0.26360181 0 0 1 -0.263602,0.2636 0.26360181,0.26360181 0 0 1 -0.263602,-0.2636 0.26360181,0.26360181 0 0 1 0.263602,-0.2636 0.26360181,0.26360181 0 0 1 0.263602,0.2636 z"
       stroke-width="0.529165"
       stroke-linecap="round"
       stroke-linejoin="round"
       id="path4" />
  </g>
</svg>
